# Blender v2.81 (sub 16) OBJ File: ''
# www.blender.org
mtllib pedestrian.mtl
o Cube.000_Cube.002
v 0.059600 0.092779 0.031439
v 0.041674 0.013779 0.031439
v -0.033795 0.079211 0.031439
v -0.033362 0.018835 0.031439
v 0.059600 0.092779 0.025775
v 0.041674 0.013779 0.025775
v -0.033795 0.079211 0.025775
v -0.033362 0.018835 0.025775
v 0.040776 0.010142 0.025775
v 0.039473 0.007120 0.025775
v 0.035154 0.002618 0.025775
v 0.027208 0.000917 0.025775
v 0.021334 0.001715 0.025775
v 0.015259 0.008783 0.025775
v 0.005868 0.044191 0.025775
v -0.009427 0.005941 0.025775
v -0.013529 0.002343 0.025775
v -0.021493 0.000586 0.025775
v -0.028822 0.003109 0.025775
v -0.033016 0.008182 0.025775
v -0.034604 0.013344 0.025775
v 0.058802 0.097662 0.031413
v 0.054343 0.101600 0.031439
v 0.037060 0.111885 0.031439
v 0.019947 0.138966 0.031439
v 0.024902 0.147242 0.031439
v 0.022532 0.166309 0.031439
v 0.007722 0.174000 0.031439
v -0.007087 0.166309 0.031439
v -0.009457 0.147242 0.031439
v -0.004502 0.138966 0.031439
v -0.028806 0.113736 0.031439
v -0.030730 0.108706 0.031439
v -0.032253 0.096112 0.031413
v -0.032253 0.096112 0.025749
v -0.030730 0.108706 0.025775
v -0.028806 0.113736 0.025775
v -0.004502 0.138966 0.025775
v -0.009457 0.147242 0.025775
v -0.007087 0.166309 0.025775
v 0.007722 0.174000 0.025775
v 0.022532 0.166309 0.025775
v 0.024902 0.147242 0.025775
v 0.019947 0.138966 0.025775
v 0.037060 0.111885 0.025775
v 0.054343 0.101600 0.025775
v 0.058802 0.097662 0.025749
v -0.034604 0.013344 0.031439
v -0.033016 0.008182 0.031439
v -0.028822 0.003109 0.031439
v -0.021493 0.000586 0.031439
v -0.013529 0.002343 0.031439
v -0.009426 0.005941 0.031439
v 0.005868 0.044191 0.031439
v 0.015259 0.008783 0.031439
v 0.021334 0.001715 0.031439
v 0.027208 0.000917 0.031439
v 0.035154 0.002618 0.031439
v 0.039473 0.007120 0.031439
v 0.040776 0.010142 0.031439
v 0.056385 0.085265 0.031439
v 0.050790 0.082720 0.031439
v 0.046430 0.083302 0.031439
v 0.023318 0.094977 0.031439
v 0.021261 0.097369 0.031439
v 0.020622 0.086808 0.031439
v 0.024528 0.075282 0.031439
v 0.025024 0.073247 0.031439
v 0.028234 0.062012 0.031439
v 0.030424 0.055734 0.031439
v 0.032278 0.050427 0.031439
v 0.036240 0.034929 0.031439
v 0.039346 0.024091 0.031439
v -0.024284 0.036788 0.025775
v -0.020224 0.045629 0.025775
v -0.019069 0.049429 0.025775
v -0.018357 0.055734 0.025775
v -0.017308 0.066292 0.025775
v -0.016726 0.073643 0.025775
v -0.016742 0.075678 0.025775
v -0.018596 0.072652 0.025775
v -0.020771 0.071289 0.025775
v -0.023201 0.070871 0.025775
v -0.028632 0.071813 0.025775
v -0.031802 0.074028 0.025775
v -0.032893 0.076243 0.025775
v -0.032893 0.076243 0.031439
v -0.031802 0.074028 0.031439
v -0.028632 0.071813 0.031439
v -0.023201 0.070871 0.031439
v -0.020771 0.071289 0.031439
v -0.018596 0.072652 0.031439
v -0.016742 0.075678 0.031439
v -0.016726 0.073643 0.031439
v -0.017308 0.066292 0.031439
v -0.018357 0.055734 0.031439
v -0.019069 0.049429 0.031439
v -0.020224 0.045629 0.031439
v -0.024284 0.036788 0.031439
v 0.056385 0.085265 0.025775
v 0.050790 0.082720 0.025775
v 0.046430 0.083302 0.025775
v 0.023318 0.094977 0.025775
v 0.021261 0.097369 0.025775
v 0.020622 0.086808 0.025775
v 0.024528 0.075282 0.025775
v 0.025024 0.073247 0.025775
v 0.028234 0.062012 0.025775
v 0.030424 0.055734 0.025775
v 0.032278 0.050427 0.025775
v 0.036240 0.034929 0.025775
v 0.039346 0.024091 0.025775
v -0.000866 0.171338 0.031439
v -0.000866 0.171338 0.025775
v 0.016310 0.171338 0.031439
v 0.016310 0.171338 0.025775
v 0.025204 0.158322 0.031439
v 0.025204 0.158322 0.025775
v -0.009759 0.158322 0.031439
v -0.009759 0.158322 0.025775
vt 0.842803 0.821649
vt 0.966049 0.853353
vt 0.807520 0.941634
vt 0.778167 0.997539
vt 0.789663 0.941634
vt 0.234495 0.946231
vt 0.052167 0.978853
vt 0.052167 0.960996
vt 0.951172 0.005859
vt 0.931966 0.039834
vt 0.933315 0.005859
vt 0.234495 0.714088
vt 0.052167 0.746710
vt 0.052167 0.728853
vt 0.234495 0.731945
vt 0.052167 0.764567
vt 0.234495 0.749802
vt 0.052167 0.782424
vt 0.234495 0.767660
vt 0.052167 0.800281
vt 0.234495 0.785517
vt 0.052167 0.818139
vt 0.234495 0.803374
vt 0.052167 0.835996
vt 0.234495 0.821231
vt 0.052167 0.853853
vt 0.234495 0.839088
vt 0.052167 0.871710
vt 0.234495 0.856945
vt 0.052167 0.889567
vt 0.234495 0.874802
vt 0.052167 0.907424
vt 0.234495 0.892660
vt 0.052167 0.925281
vt 0.234495 0.910517
vt 0.052167 0.943139
vt 0.234495 0.928374
vt 0.966049 0.603353
vt 0.842803 0.628326
vt 0.842803 0.599988
vt 0.966049 0.639067
vt 0.842803 0.635702
vt 0.842803 0.653559
vt 0.966049 0.656924
vt 0.842803 0.671416
vt 0.966049 0.674781
vt 0.842803 0.689273
vt 0.966049 0.701567
vt 0.842803 0.707130
vt 0.842802 0.698202
vt 0.966049 0.719424
vt 0.842803 0.724988
vt 0.842803 0.716059
vt 0.966049 0.737281
vt 0.842803 0.742845
vt 0.842803 0.733916
vt 0.966049 0.755139
vt 0.842803 0.760702
vt 0.842803 0.751773
vt 0.966049 0.764067
vt 0.842803 0.778559
vt 0.966049 0.781924
vt 0.842803 0.796416
vt 0.966049 0.799781
vt 0.842803 0.814273
vt 0.966049 0.817639
vt 0.514883 0.061964
vt 0.581244 0.018199
vt 0.656683 0.069395
vt 0.170274 0.008320
vt 0.152417 0.008320
vt 0.188132 0.008320
vt 0.168926 0.042294
vt 0.204640 0.042294
vt 0.186783 0.042294
vt 0.223846 0.008320
vt 0.205989 0.008320
vt 0.790458 0.005859
vt 0.222497 0.042294
vt 0.808315 0.005859
vt 0.789109 0.039834
vt 0.826172 0.005859
vt 0.806966 0.039834
vt 0.844029 0.005859
vt 0.824823 0.039834
vt 0.861886 0.005859
vt 0.842681 0.039834
vt 0.879743 0.005859
vt 0.860538 0.039834
vt 0.897600 0.005859
vt 0.878395 0.039834
vt 0.915458 0.005859
vt 0.896252 0.039834
vt 0.914109 0.039834
vt 0.575377 0.941634
vt 0.546024 0.997539
vt 0.234495 0.964088
vt 0.593235 0.941634
vt 0.563882 0.997539
vt 0.611092 0.941634
vt 0.581739 0.997539
vt 0.628949 0.941634
vt 0.599596 0.997539
vt 0.646806 0.941634
vt 0.617453 0.997539
vt 0.664663 0.941634
vt 0.635310 0.997539
vt 0.682520 0.941634
vt 0.653167 0.997539
vt 0.700377 0.941634
vt 0.671024 0.997539
vt 0.718235 0.941634
vt 0.688882 0.997539
vt 0.736092 0.941634
vt 0.706739 0.997539
vt 0.753949 0.941634
vt 0.724596 0.997539
vt 0.771806 0.941634
vt 0.742453 0.997539
vt 0.760310 0.997539
vt 0.462343 0.260101
vt 0.324838 0.289253
vt 0.328834 0.324024
vt 0.966049 0.728353
vt 0.966049 0.710496
vt 0.966049 0.692639
vt 0.966049 0.746210
vt 0.966049 0.825015
vt 0.796024 0.997539
vt 0.966049 0.631691
vt 0.259809 0.617428
vt 0.251028 0.547346
vt 0.337384 0.433834
vt 0.242591 0.453315
vt 0.247631 0.436830
vt 0.253712 0.424533
vt 0.271343 0.412250
vt 0.301534 0.407066
vt 0.315032 0.409408
vt 0.327106 0.417002
vt 0.270529 0.645367
vt 0.548659 0.554182
vt 0.376578 0.893030
vt 0.378202 0.831462
vt 0.569127 0.831298
vt 0.405697 0.785450
vt 0.391463 0.937399
vt 0.426058 0.965313
vt 0.570857 0.892863
vt 0.521501 0.965232
vt 0.473792 0.980066
vt 0.556049 0.937258
vt 0.541554 0.785333
vt 0.337461 0.422525
vt 0.545057 0.495498
vt 0.334193 0.381681
vt 0.569455 0.420128
vt 0.566706 0.431438
vt 0.328314 0.323015
vt 0.462868 0.258761
vt 0.636518 0.634767
vt 0.758069 0.556109
vt 0.732505 0.577536
vt 0.761676 0.528493
vt 0.688446 0.475896
vt 0.743775 0.486757
vt 0.712670 0.472640
vt 0.560074 0.540879
vt 0.587234 0.357682
vt 0.324325 0.287984
vt 0.317887 0.266874
vt 0.631596 0.207151
vt 0.609650 0.293289
vt 0.599374 0.322782
vt 0.295289 0.217766
vt 0.244759 0.118051
vt 0.377699 0.046285
vt 0.237828 0.087542
vt 0.246632 0.058852
vt 0.310625 0.016591
vt 0.661686 0.089600
vt 0.648802 0.146911
vt 0.269909 0.030645
vt 0.354887 0.026316
vt 0.548610 0.022657
vt 0.649425 0.052608
vt 0.625405 0.027613
vt 0.730343 0.576280
vt 0.755699 0.554983
vt 0.759252 0.527564
vt 0.741438 0.486151
vt 0.686501 0.475425
vt 0.710546 0.472168
vt 0.559129 0.540066
vt 0.635113 0.633193
vt 0.547811 0.553285
vt 0.570194 0.889477
vt 0.568414 0.828362
vt 0.378879 0.828720
vt 0.540994 0.782760
vt 0.544175 0.495032
vt 0.565601 0.431415
vt 0.338017 0.422802
vt 0.568319 0.420184
vt 0.337951 0.434028
vt 0.406127 0.783015
vt 0.271799 0.644090
vt 0.555539 0.933564
vt 0.521272 0.961369
vt 0.426524 0.961548
vt 0.377330 0.889842
vt 0.392152 0.933872
vt 0.473926 0.976145
vt 0.261128 0.616366
vt 0.252340 0.546803
vt 0.585905 0.358175
vt 0.243868 0.453465
vt 0.254879 0.424880
vt 0.248855 0.437094
vt 0.272369 0.412669
vt 0.302335 0.407492
vt 0.327731 0.417329
vt 0.315737 0.409803
vt 0.334730 0.382258
vt 0.597921 0.323517
vt 0.608092 0.294227
vt 0.629790 0.208694
vt 0.646809 0.148875
vt 0.513778 0.064683
vt 0.659541 0.091968
vt 0.654554 0.071915
vt 0.647332 0.055258
vt 0.579611 0.021168
vt 0.623460 0.030469
vt 0.547220 0.025628
vt 0.377577 0.049259
vt 0.295942 0.219576
vt 0.354911 0.029459
vt 0.310961 0.019850
vt 0.245678 0.120638
vt 0.270556 0.033842
vt 0.247476 0.061868
vt 0.238766 0.090359
vt 0.318426 0.268303
vn -0.9959 0.0908 0.0000
vn -0.9568 -0.2908 0.0000
vn -0.9753 0.2207 0.0000
vn 0.9194 -0.3934 0.0000
vn 0.9709 -0.2395 0.0000
vn 0.9182 -0.3961 0.0000
vn 0.7216 -0.6923 0.0000
vn 0.2093 -0.9778 -0.0000
vn -0.1345 -0.9909 0.0000
vn -0.7584 -0.6518 -0.0000
vn -0.9666 -0.2564 -0.0000
vn 0.9285 -0.3713 0.0000
vn 0.6593 -0.7519 -0.0000
vn 0.2154 -0.9765 -0.0000
vn -0.3255 -0.9456 0.0000
vn -0.7707 -0.6372 0.0000
vn -0.9558 -0.2942 0.0000
vn 0.9869 0.1612 0.0000
vn 0.6619 0.7496 0.0000
vn 0.5114 0.8594 0.0000
vn 0.8454 0.5342 0.0000
vn 0.8580 -0.5137 0.0000
vn 0.9483 0.3172 -0.0000
vn 0.2961 0.9552 0.0000
vn -0.6286 0.7777 -0.0000
vn -0.9996 -0.0272 0.0000
vn -0.8580 -0.5137 0.0000
vn -0.7202 0.6938 0.0000
vn -0.9339 0.3574 0.0000
vn -0.9928 0.1201 0.0000
vn 0.0000 -0.0000 1.0000
vn 0.9755 0.2202 0.0000
vn 0.9613 0.2755 0.0000
vn 0.9688 0.2477 0.0000
vn 0.9440 0.3298 -0.0000
vn 0.9442 0.3294 -0.0000
vn 0.9615 0.2747 -0.0000
vn 0.9715 0.2370 -0.0000
vn 0.9471 0.3210 -0.0000
vn 0.9982 -0.0604 0.0000
vn -0.4509 -0.8926 0.0000
vn -0.1324 -0.9912 0.0000
vn 0.4141 -0.9102 0.0000
vn -0.8924 0.4513 0.0000
vn -0.9088 0.4173 0.0000
vn -0.9568 0.2909 0.0000
vn -0.9937 0.1123 0.0000
vn -0.9951 0.0989 0.0000
vn -0.9969 0.0789 0.0000
vn -1.0000 -0.0077 0.0000
vn 0.8526 -0.5225 -0.0000
vn 0.5311 -0.8473 -0.0000
vn 0.1693 -0.9856 -0.0000
vn -0.1708 -0.9853 -0.0000
vn -0.5729 -0.8196 0.0000
vn -0.8971 -0.4419 0.0000
vn -0.0000 0.0000 -1.0000
vn -0.2961 0.9552 -0.0000
vn 0.6286 0.7777 -0.0000
vn 0.9996 -0.0272 -0.0000
vn -0.9483 0.3172 0.0000
vn 0.9182 -0.3960 0.0000
vn -0.0038 -0.0016 1.0000
vn 0.0003 0.0015 1.0000
vn 0.0123 0.0073 0.9999
vn -0.0123 -0.0073 -0.9999
vn 0.0038 0.0016 -1.0000
vn -0.0003 -0.0015 -1.0000
usemtl Material.002
s off
f 34/1/1 7/2/1 3/3/1
f 3/3/2 86/4/2 87/5/2
f 48/6/3 8/7/3 21/8/3
f 5/9/4 61/10/4 100/11/4
f 2/12/5 9/13/5 6/14/5
f 60/15/6 10/16/6 9/13/6
f 59/17/7 11/18/7 10/16/7
f 58/19/8 12/20/8 11/18/8
f 57/21/9 13/22/9 12/20/9
f 56/23/10 14/24/10 13/22/10
f 55/25/11 15/26/11 14/24/11
f 54/27/12 16/28/12 15/26/12
f 53/29/13 17/30/13 16/28/13
f 52/31/14 18/32/14 17/30/14
f 51/33/15 19/34/15 18/32/15
f 50/35/16 20/36/16 19/34/16
f 49/37/17 21/8/17 20/36/17
f 5/38/18 22/39/18 1/40/18
f 22/39/19 46/41/19 23/42/19
f 46/41/20 24/43/20 23/42/20
f 45/44/21 25/45/21 24/43/21
f 44/46/22 26/47/22 25/45/22
f 118/48/23 27/49/23 117/50/23
f 116/51/24 28/52/24 115/53/24
f 114/54/25 29/55/25 113/56/25
f 120/57/26 30/58/26 119/59/26
f 39/60/27 31/61/27 30/58/27
f 38/62/28 32/63/28 31/61/28
f 37/64/29 33/65/29 32/63/29
f 36/66/30 34/1/30 33/65/30
f 55/67/31 57/68/31 60/69/31
f 112/70/32 2/12/32 6/71/32
f 111/72/33 73/73/33 112/70/33
f 111/72/34 71/74/34 72/75/34
f 109/76/35 71/74/35 110/77/35
f 108/78/36 70/79/36 109/76/36
f 107/80/37 69/81/37 108/78/37
f 106/82/38 68/83/38 107/80/38
f 105/84/39 67/85/39 106/82/39
f 104/86/40 66/87/40 105/84/40
f 103/88/10 65/89/10 104/86/10
f 102/90/41 64/91/41 103/88/41
f 101/92/42 63/93/42 102/90/42
f 100/11/43 62/94/43 101/92/43
f 99/95/44 8/96/44 4/97/44
f 98/98/45 74/99/45 99/95/45
f 97/100/46 75/101/46 98/98/46
f 96/102/47 76/103/47 97/100/47
f 95/104/48 77/105/48 96/102/48
f 94/106/49 78/107/49 95/104/49
f 93/108/50 79/109/50 94/106/50
f 92/110/51 80/111/51 93/108/51
f 91/112/52 81/113/52 92/110/52
f 90/114/53 82/115/53 91/112/53
f 89/116/54 83/117/54 90/114/54
f 88/118/55 84/119/55 89/116/55
f 87/5/56 85/120/56 88/118/56
f 15/121/57 76/122/57 77/123/57
f 41/124/58 113/56/58 28/52/58
f 42/125/59 115/53/59 27/49/59
f 43/126/60 117/50/60 26/47/60
f 40/127/61 119/59/61 29/55/61
f 34/1/1 35/128/1 7/2/1
f 3/3/2 7/129/2 86/4/2
f 48/6/3 4/97/3 8/7/3
f 5/9/4 1/40/4 61/10/4
f 2/12/5 60/15/5 9/13/5
f 60/15/62 59/17/62 10/16/62
f 59/17/7 58/19/7 11/18/7
f 58/19/8 57/21/8 12/20/8
f 57/21/9 56/23/9 13/22/9
f 56/23/10 55/25/10 14/24/10
f 55/25/11 54/27/11 15/26/11
f 54/27/12 53/29/12 16/28/12
f 53/29/13 52/31/13 17/30/13
f 52/31/14 51/33/14 18/32/14
f 51/33/15 50/35/15 19/34/15
f 50/35/16 49/37/16 20/36/16
f 49/37/17 48/6/17 21/8/17
f 5/38/18 47/130/18 22/39/18
f 22/39/19 47/130/19 46/41/19
f 46/41/20 45/44/20 24/43/20
f 45/44/21 44/46/21 25/45/21
f 44/46/22 43/126/22 26/47/22
f 118/48/23 42/125/23 27/49/23
f 116/51/24 41/124/24 28/52/24
f 114/54/25 40/127/25 29/55/25
f 120/57/26 39/60/26 30/58/26
f 39/60/27 38/62/27 31/61/27
f 38/62/28 37/64/28 32/63/28
f 37/64/29 36/66/29 33/65/29
f 36/66/30 35/128/30 34/1/30
f 33/131/63 34/132/63 93/133/63
f 34/132/64 3/134/64 93/133/64
f 3/134/31 87/135/31 93/133/31
f 87/135/31 88/136/31 89/137/31
f 93/133/31 89/137/31 90/138/31
f 87/135/31 89/137/31 93/133/31
f 90/138/31 91/139/31 92/140/31
f 90/138/31 92/140/31 93/133/31
f 32/141/31 33/131/31 65/142/31
f 119/143/31 30/144/31 26/145/31
f 30/144/31 31/146/31 26/145/31
f 31/146/31 32/141/31 65/142/31
f 33/131/31 93/133/31 65/142/31
f 29/147/31 119/143/31 113/148/31
f 113/148/31 117/149/31 115/150/31
f 28/151/31 113/148/31 115/150/31
f 115/150/31 117/149/31 27/152/31
f 26/145/31 117/149/31 119/143/31
f 119/143/31 117/149/31 113/148/31
f 25/153/31 26/145/31 31/146/31
f 93/133/31 94/154/31 66/155/31
f 65/142/31 93/133/31 66/155/31
f 94/154/31 95/156/31 68/157/31
f 66/155/31 94/154/31 67/158/31
f 95/156/31 96/159/31 54/160/31
f 94/154/31 68/157/31 67/158/31
f 24/161/31 25/153/31 65/142/31
f 25/153/31 31/146/31 65/142/31
f 22/162/65 23/163/65 1/164/65
f 23/163/31 24/161/31 63/165/31
f 61/166/31 1/164/31 63/165/31
f 63/165/31 1/164/31 23/163/31
f 63/165/31 62/167/31 61/166/31
f 65/142/31 64/168/31 24/161/31
f 64/168/31 63/165/31 24/161/31
f 69/169/31 68/157/31 54/160/31
f 54/160/31 96/159/31 97/170/31
f 68/157/31 95/156/31 54/160/31
f 97/170/31 98/171/31 54/160/31
f 72/172/31 71/173/31 54/160/31
f 71/173/31 70/174/31 54/160/31
f 70/174/31 69/169/31 54/160/31
f 99/175/31 4/176/31 53/177/31
f 4/176/31 48/178/31 49/179/31
f 53/177/31 4/176/31 51/180/31
f 98/171/31 99/175/31 54/160/31
f 2/181/31 73/182/31 55/67/31
f 73/182/31 72/172/31 55/67/31
f 4/176/31 49/179/31 51/180/31
f 49/179/31 50/183/31 51/180/31
f 51/180/31 52/184/31 53/177/31
f 54/160/31 55/67/31 72/172/31
f 55/67/31 56/185/31 57/68/31
f 53/177/31 54/160/31 99/175/31
f 59/186/31 60/69/31 57/68/31
f 60/69/31 2/181/31 55/67/31
f 57/68/31 58/187/31 59/186/31
f 112/70/32 73/73/32 2/12/32
f 111/72/33 72/75/33 73/73/33
f 111/72/34 110/77/34 71/74/34
f 109/76/35 70/79/35 71/74/35
f 108/78/36 69/81/36 70/79/36
f 107/80/37 68/83/37 69/81/37
f 106/82/38 67/85/38 68/83/38
f 105/84/39 66/87/39 67/85/39
f 104/86/40 65/89/40 66/87/40
f 103/88/10 64/91/10 65/89/10
f 102/90/41 63/93/41 64/91/41
f 101/92/42 62/94/42 63/93/42
f 100/11/43 61/10/43 62/94/43
f 99/95/44 74/99/44 8/96/44
f 98/98/45 75/101/45 74/99/45
f 97/100/46 76/103/46 75/101/46
f 96/102/47 77/105/47 76/103/47
f 95/104/48 78/107/48 77/105/48
f 94/106/49 79/109/49 78/107/49
f 93/108/50 80/111/50 79/109/50
f 92/110/51 81/113/51 80/111/51
f 91/112/52 82/115/52 81/113/52
f 90/114/53 83/117/53 82/115/53
f 89/116/54 84/119/54 83/117/54
f 88/118/55 85/120/55 84/119/55
f 87/5/56 86/4/56 85/120/56
f 46/188/66 47/189/66 5/190/66
f 5/190/57 100/191/57 102/192/57
f 100/191/57 101/193/57 102/192/57
f 102/192/57 103/194/57 45/195/57
f 102/192/57 45/195/57 46/188/57
f 103/194/57 104/196/57 45/195/57
f 46/188/57 5/190/57 102/192/57
f 118/197/57 43/198/57 39/199/57
f 43/198/57 44/200/57 39/199/57
f 44/200/57 45/195/57 104/196/57
f 105/201/57 106/202/57 79/203/57
f 106/202/57 107/204/57 79/203/57
f 105/201/57 79/203/57 80/205/57
f 44/200/57 104/196/57 38/206/57
f 104/196/57 105/201/57 80/205/57
f 38/206/57 104/196/57 37/207/57
f 42/208/57 118/197/57 116/209/57
f 114/210/57 120/211/57 40/212/57
f 41/213/57 116/209/57 114/210/57
f 114/210/57 116/209/57 118/197/57
f 39/199/57 120/211/57 118/197/57
f 118/197/57 120/211/57 114/210/57
f 36/214/57 37/207/57 104/196/57
f 38/206/57 39/199/57 44/200/57
f 35/215/67 36/214/67 80/205/67
f 107/204/57 108/216/57 15/121/57
f 7/217/68 35/215/68 80/205/68
f 36/214/57 104/196/57 80/205/57
f 85/218/57 86/219/57 84/220/57
f 86/219/57 7/217/57 80/205/57
f 84/220/57 80/205/57 83/221/57
f 81/222/57 82/223/57 83/221/57
f 80/205/57 81/222/57 83/221/57
f 84/220/57 86/219/57 80/205/57
f 79/203/57 107/204/57 78/224/57
f 78/224/57 107/204/57 15/121/57
f 109/225/57 110/226/57 15/121/57
f 110/226/57 111/227/57 15/121/57
f 108/216/57 109/225/57 15/121/57
f 111/227/57 112/228/57 14/229/57
f 112/228/57 6/230/57 14/229/57
f 77/123/57 78/224/57 15/121/57
f 6/230/57 9/231/57 14/229/57
f 9/231/57 10/232/57 12/233/57
f 10/232/57 11/234/57 12/233/57
f 12/233/57 13/235/57 14/229/57
f 14/229/57 15/121/57 111/227/57
f 15/121/57 16/236/57 74/237/57
f 16/236/57 17/238/57 18/239/57
f 74/237/57 16/236/57 8/240/57
f 18/239/57 19/241/57 20/242/57
f 8/240/57 18/239/57 20/242/57
f 20/242/57 21/243/57 8/240/57
f 16/236/57 18/239/57 8/240/57
f 74/237/57 75/244/57 15/121/57
f 12/233/57 14/229/57 9/231/57
f 15/121/57 75/244/57 76/122/57
f 41/124/58 114/54/58 113/56/58
f 42/125/59 116/51/59 115/53/59
f 43/126/60 118/48/60 117/50/60
f 40/127/61 120/57/61 119/59/61
