# Blender v2.81 (sub 16) OBJ File: ''
# www.blender.org
mtllib traffic_light.mtl
o Cube.001_Cube.000
v 0.032673 -0.001448 -0.147484
v 0.032673 0.009004 -0.098814
v 0.032673 -0.001448 -0.098814
v -0.032673 -0.001448 -0.098814
v -0.032673 -0.001448 -0.147484
v -0.032673 0.009004 -0.196154
v -0.032673 -0.001448 -0.196154
v 0.032673 -0.001448 -0.196154
v 0.032673 0.020420 -0.147484
v -0.032673 0.020420 -0.147484
v -0.032673 0.009004 -0.098814
v 0.032673 0.009004 -0.196154
v -0.010745 0.215029 -0.163503
v -0.010745 0.216665 -0.166700
v -0.010745 0.213824 -0.169061
v 0.010745 0.213824 -0.169061
v 0.010745 0.215029 -0.131465
v 0.010745 0.216665 -0.128268
v 0.010745 0.213824 -0.125907
v -0.010745 0.213824 -0.125907
v 0.010745 0.075386 -0.133072
v -0.010745 0.079549 -0.128268
v -0.010745 0.075386 -0.133072
v -0.010745 0.220828 -0.133072
v 0.010745 0.220828 -0.133072
v -0.010745 0.223399 -0.157092
v 0.010745 0.225323 -0.147484
v 0.010745 0.223399 -0.157092
v 0.010745 0.072816 -0.157092
v -0.010745 0.070892 -0.147484
v -0.010745 0.072816 -0.157092
v 0.010745 0.218888 -0.147484
v 0.010745 0.217336 -0.157945
v -0.010745 0.223399 -0.137876
v -0.010745 0.218888 -0.147484
v -0.010745 0.217336 -0.137023
v -0.010745 0.084942 -0.136171
v -0.010745 0.096630 -0.147484
v -0.010745 0.083761 -0.147484
v -0.010745 0.096630 -0.134465
v -0.010745 0.122369 -0.147484
v -0.010745 0.122369 -0.134465
v -0.010745 0.148107 -0.147484
v -0.010745 0.148107 -0.134465
v -0.010745 0.173846 -0.147484
v -0.010745 0.199584 -0.134465
v -0.010745 0.173846 -0.134465
v 0.010745 0.084942 -0.158797
v 0.010745 0.096630 -0.147484
v 0.010745 0.083761 -0.147484
v 0.010745 0.096630 -0.160503
v 0.010745 0.122369 -0.147484
v 0.010745 0.122369 -0.160503
v 0.010745 0.148107 -0.147484
v 0.010745 0.148107 -0.160503
v 0.010745 0.173846 -0.147484
v 0.010745 0.199584 -0.160503
v 0.010745 0.173846 -0.160503
v 0.010745 0.096630 -0.121447
v -0.010745 0.086122 -0.123546
v 0.010745 0.086122 -0.123546
v 0.010745 0.122369 -0.121447
v -0.010745 0.096630 -0.121447
v 0.010745 0.148107 -0.121447
v -0.010745 0.122369 -0.121447
v 0.010745 0.173846 -0.121447
v -0.010745 0.148107 -0.121447
v 0.010745 0.199584 -0.121447
v -0.010745 0.173846 -0.121447
v 0.010745 0.096630 -0.127956
v 0.010745 0.085532 -0.129858
v 0.010745 0.122369 -0.127956
v 0.010745 0.148107 -0.127956
v 0.010745 0.199584 -0.127956
v 0.010745 0.173846 -0.127956
v -0.010745 0.096630 -0.173521
v 0.010745 0.086122 -0.171422
v -0.010745 0.086122 -0.171422
v -0.010745 0.122369 -0.173521
v 0.010745 0.096630 -0.173521
v -0.010745 0.148107 -0.173521
v 0.010745 0.122369 -0.173521
v -0.010745 0.173846 -0.173521
v 0.010745 0.148107 -0.173521
v -0.010745 0.199584 -0.173521
v 0.010745 0.173846 -0.173521
v -0.010745 0.096630 -0.167012
v -0.010745 0.085532 -0.165110
v -0.010745 0.122369 -0.167012
v -0.010745 0.148107 -0.167012
v -0.010745 0.199584 -0.167012
v -0.010745 0.173846 -0.167012
v 0.010745 0.199584 -0.147484
v 0.010745 0.173846 -0.134465
v 0.010745 0.148107 -0.134465
v 0.010745 0.122369 -0.134465
v 0.010745 0.096630 -0.134465
v 0.010745 0.084942 -0.136171
v -0.010745 0.199584 -0.127956
v -0.010745 0.173846 -0.127956
v -0.010745 0.148107 -0.127956
v -0.010745 0.122369 -0.127956
v -0.010745 0.096630 -0.127956
v -0.010745 0.085532 -0.129858
v -0.010745 0.215029 -0.131465
v -0.010745 0.225323 -0.147484
v 0.010745 0.223399 -0.137876
v 0.010745 0.070892 -0.147484
v -0.010745 0.072816 -0.137876
v 0.010745 0.217336 -0.137023
v 0.010745 0.211273 -0.136171
v 0.010745 0.199584 -0.134465
v -0.010745 0.210683 -0.129858
v -0.010745 0.211273 -0.136171
v -0.010745 0.199584 -0.147484
v 0.010745 0.211273 -0.158797
v 0.010745 0.210092 -0.123546
v -0.010745 0.199584 -0.121447
v -0.010745 0.210092 -0.171422
v 0.010745 0.199584 -0.173521
v -0.010745 0.211273 -0.158797
v -0.010745 0.199584 -0.160503
v 0.010745 0.210683 -0.165110
v 0.010745 0.199584 -0.167012
v -0.010745 0.173846 -0.160503
v -0.010745 0.148107 -0.160503
v -0.010745 0.122369 -0.160503
v -0.010745 0.096630 -0.160503
v -0.010745 0.084942 -0.158797
v 0.010745 0.173846 -0.167012
v 0.010745 0.148107 -0.167012
v 0.010745 0.122369 -0.167012
v 0.010745 0.096630 -0.167012
v 0.010745 0.085532 -0.165110
v 0.010745 0.220828 -0.161896
v 0.010745 0.215029 -0.163503
v 0.010745 0.075386 -0.161896
v -0.010745 0.075386 -0.161896
v -0.010745 0.220828 -0.161896
v -0.010745 0.217336 -0.157945
v 0.010745 0.081185 -0.163503
v 0.010745 0.078879 -0.157945
v -0.010745 0.078879 -0.157945
v -0.010745 0.077327 -0.147484
v -0.010745 0.081185 -0.131465
v -0.010745 0.078879 -0.137023
v 0.010745 0.078879 -0.137023
v 0.010745 0.077327 -0.147484
v -0.010745 0.082391 -0.169061
v -0.010745 0.081185 -0.163503
v 0.010745 0.082391 -0.169061
v 0.010745 0.082391 -0.125907
v 0.010745 0.081185 -0.131465
v -0.010745 0.082391 -0.125907
v 0.010745 0.210683 -0.129858
v -0.010745 0.210092 -0.123546
v -0.010745 0.216665 -0.128268
v 0.010745 0.072816 -0.137876
v 0.010745 0.216665 -0.166700
v 0.010745 0.079549 -0.166700
v -0.010745 0.079549 -0.166700
v 0.010745 0.210092 -0.171422
v -0.010745 0.210683 -0.165110
v -0.010745 0.212453 -0.147484
v 0.010745 0.212453 -0.147484
v 0.010745 0.079549 -0.128268
v -0.008665 0.079236 -0.135375
v -0.008665 0.012897 -0.159593
v -0.008665 0.012897 -0.135375
v 0.002901 0.079236 -0.161022
v 0.008684 0.012897 -0.159593
v 0.002901 0.012897 -0.161022
v 0.008684 0.079236 -0.159593
v 0.008684 0.012897 -0.135375
v -0.002882 0.079236 -0.133946
v -0.002882 0.012897 -0.133946
v 0.002901 0.012897 -0.133946
v -0.008665 0.079236 -0.159593
v -0.002882 0.079236 -0.161022
v 0.008684 0.079236 -0.135375
v 0.002901 0.079236 -0.133946
v -0.002882 0.012897 -0.161022
vt 0.375000 0.125000
vt 0.625000 0.250000
vt 0.375000 0.250000
vt 0.375000 0.500000
vt 0.375000 0.625000
vt 0.625000 0.750000
vt 0.375000 0.750000
vt 0.375000 1.000000
vt 0.345875 0.728224
vt 0.345875 0.603224
vt 0.875000 0.625000
vt 0.625000 0.625000
vt 0.875000 0.500000
vt 0.625000 0.500000
vt 0.345875 0.478224
vt 0.625000 0.000000
vt 0.375000 0.000000
vt 0.625000 0.125000
vt 0.625000 1.000000
vt 0.875000 0.750000
vt 0.614583 0.218750
vt 0.625000 0.250000
vt 0.614583 0.250000
vt 0.614583 0.500000
vt 0.064921 0.933292
vt 0.044221 0.943884
vt 0.028935 0.925490
vt 0.625000 0.750000
vt 0.614583 1.000000
vt 0.614583 0.750000
vt 0.375000 0.718750
vt 0.330320 0.712669
vt 0.330320 0.681419
vt 0.875000 0.718750
vt 0.625000 0.718750
vt 0.875000 0.562500
vt 0.625000 0.625000
vt 0.625000 0.562500
vt 0.375000 0.562500
vt 0.336542 0.628111
vt 0.336542 0.565611
vt 0.230846 0.987485
vt 0.168638 0.958278
vt 0.236369 0.948229
vt 0.625000 0.062500
vt 0.614583 0.125000
vt 0.614583 0.062500
vt 0.395833 0.062500
vt 0.416667 0.125000
vt 0.395833 0.125000
vt 0.416667 0.062500
vt 0.458333 0.125000
vt 0.458333 0.062500
vt 0.500000 0.125000
vt 0.500000 0.062500
vt 0.541667 0.125000
vt 0.583333 0.062500
vt 0.541667 0.062500
vt 0.241886 0.091027
vt 0.168638 0.166702
vt 0.168638 0.083380
vt 0.252931 0.166702
vt 0.168638 0.333353
vt 0.252931 0.333353
vt 0.168638 0.499997
vt 0.252931 0.499997
vt 0.168638 0.666647
vt 0.252931 0.833291
vt 0.252931 0.666647
vt 0.416667 0.750000
vt 0.395833 1.000000
vt 0.395833 0.750000
vt 0.458333 0.750000
vt 0.416667 1.000000
vt 0.500000 0.750000
vt 0.458333 1.000000
vt 0.541667 0.750000
vt 0.500000 1.000000
vt 0.583333 0.750000
vt 0.541667 1.000000
vt 0.042201 0.166702
vt 0.013648 0.098667
vt 0.054516 0.094847
vt 0.000058 0.333353
vt 0.000058 0.166702
vt 0.042201 0.333353
vt 0.000058 0.499997
vt 0.042202 0.499997
vt 0.000058 0.666647
vt 0.042201 0.833291
vt 0.042202 0.666647
vt 0.416667 0.250000
vt 0.395833 0.500000
vt 0.395833 0.250000
vt 0.458333 0.250000
vt 0.416667 0.500000
vt 0.500000 0.250000
vt 0.458333 0.500000
vt 0.541667 0.250000
vt 0.500000 0.500000
vt 0.583333 0.250000
vt 0.541667 0.500000
vt 0.416667 0.218750
vt 0.395833 0.218750
vt 0.458333 0.218750
vt 0.500000 0.218750
vt 0.583333 0.218750
vt 0.541667 0.218750
vt 0.168638 0.833291
vt 0.084345 0.666647
vt 0.084345 0.499997
vt 0.084345 0.333353
vt 0.084345 0.166702
vt 0.095391 0.091027
vt 0.583333 0.031250
vt 0.541667 0.031250
vt 0.500000 0.031250
vt 0.458333 0.031250
vt 0.416667 0.031250
vt 0.395833 0.031250
vt 0.625000 0.031250
vt 0.614583 0.031250
vt 0.875000 0.625000
vt 0.625000 0.687500
vt 0.375000 0.625000
vt 0.336542 0.690611
vt 0.106430 0.987485
vt 0.100907 0.948229
vt 0.095391 0.908973
vt 0.084345 0.833291
vt 0.604167 0.031250
vt 0.604167 0.062500
vt 0.583333 0.125000
vt 0.241886 0.908973
vt 0.604167 0.750000
vt 0.583333 1.000000
vt 0.013648 0.901327
vt 0.000058 0.833291
vt 0.604167 0.250000
vt 0.583333 0.500000
vt 0.604167 0.187500
vt 0.583333 0.187500
vt 0.282760 0.905153
vt 0.295075 0.833291
vt 0.541667 0.187500
vt 0.500000 0.187500
vt 0.458333 0.187500
vt 0.416667 0.187500
vt 0.395833 0.187500
vt 0.295075 0.666647
vt 0.295075 0.499997
vt 0.295075 0.333353
vt 0.295075 0.166702
vt 0.282760 0.094847
vt 0.261950 0.970838
vt 0.272355 0.933292
vt 0.375000 0.531250
vt 0.336542 0.534361
vt 0.875000 0.531250
vt 0.625000 0.531250
vt 0.625000 0.187500
vt 0.614583 0.187500
vt 0.272355 0.066701
vt 0.236369 0.051771
vt 0.385417 0.187500
vt 0.385417 0.125000
vt 0.385417 0.031250
vt 0.385417 0.062500
vt 0.100907 0.051771
vt 0.168638 0.041722
vt 0.385417 0.250000
vt 0.385417 0.218750
vt 0.385417 0.500000
vt 0.028935 0.074510
vt 0.064921 0.066701
vt 0.385417 1.000000
vt 0.385417 0.750000
vt 0.385417 0.000000
vt 0.054516 0.905153
vt 0.604167 0.000000
vt 0.583333 0.000000
vt 0.625000 0.000000
vt 0.614583 0.000000
vt 0.395833 0.000000
vt 0.458333 0.000000
vt 0.416667 0.000000
vt 0.500000 0.000000
vt 0.541667 0.000000
vt 0.875000 0.687500
vt 0.375000 0.687500
vt 0.336542 0.721861
vt 0.075326 0.970838
vt 0.308341 0.074510
vt 0.875000 0.500000
vt 0.625000 0.500000
vt 0.375000 0.500000
vt 0.336542 0.503111
vt 0.293055 0.943884
vt 0.308341 0.925490
vt 0.323628 0.098667
vt 0.337218 0.333353
vt 0.337218 0.166702
vt 0.337218 0.499997
vt 0.337218 0.666647
vt 0.337218 0.833291
vt 0.323628 0.901327
vt 0.604167 0.218750
vt 0.625000 0.218750
vt 0.604167 0.125000
vt 0.168638 0.916613
vt 0.604167 1.000000
vt 0.604167 0.500000
vt 0.293055 0.056109
vt 0.261950 0.029155
vt 0.375000 0.218750
vt 0.375000 0.187500
vt 0.375000 0.000000
vt 0.375000 0.031250
vt 0.075326 0.029155
vt 0.106430 0.012515
vt 0.375000 0.062500
vt 0.375000 0.125000
vt 0.230846 0.012515
vt 0.168638 0.000058
vt 0.375000 1.000000
vt 0.375000 0.750000
vt 0.044222 0.056109
vt 0.375000 0.250000
vt 0.625000 1.000000
vt 0.875000 0.750000
vt 0.168638 0.999942
vt 0.625000 0.125000
vt 0.125000 0.562500
vt 0.625000 0.000000
vt 0.375000 0.250000
vt 0.375000 0.000000
vt 0.625000 0.416667
vt 0.375000 0.500000
vt 0.375000 0.416667
vt 0.625000 0.500000
vt 0.375000 0.750000
vt 0.625000 0.916667
vt 0.375000 1.000000
vt 0.375000 0.916667
vt 0.291667 0.750000
vt 0.291667 0.500000
vt 0.875000 0.500000
vt 0.791667 0.750000
vt 0.791667 0.500000
vt 0.708333 0.500000
vt 0.625000 0.750000
vt 0.708333 0.750000
vt 0.208333 0.500000
vt 0.125000 0.750000
vt 0.125000 0.500000
vt 0.208333 0.750000
vt 0.375000 0.833333
vt 0.625000 0.833333
vt 0.625000 0.250000
vt 0.375000 0.333333
vt 0.625000 0.333333
vt 0.625000 1.000000
vt 0.875000 0.750000
vn 1.0000 0.0000 0.0000
vn 0.0000 0.0000 1.0000
vn -1.0000 0.0000 0.0000
vn 0.0000 0.0000 -1.0000
vn 0.0000 -1.0000 -0.0000
vn 0.0000 0.9736 -0.2284
vn 0.0000 0.9736 0.2284
vn 0.0000 0.6391 -0.7691
vn 0.0000 0.6391 0.7691
vn 0.0000 -0.7557 0.6549
vn 0.0000 0.7557 0.6549
vn 0.0000 0.9805 -0.1964
vn 0.0000 -0.9805 -0.1964
vn 0.0000 -0.1959 0.9806
vn 0.0000 -0.1959 -0.9806
vn 0.0000 0.9805 0.1964
vn 0.0000 -0.9805 0.1964
vn 0.0000 0.1959 0.9806
vn 0.0000 0.1959 -0.9806
vn 0.0000 -0.8818 -0.4717
vn 0.0000 0.8817 -0.4719
vn 0.0000 -0.5347 -0.8450
vn 0.0000 -0.5347 0.8450
vn 0.0000 0.8817 0.4719
vn 0.0000 -0.8818 0.4717
vn 0.0000 0.7557 -0.6549
vn 0.0000 -0.7557 -0.6549
vn 0.0000 0.5346 0.8451
vn 0.0000 0.5346 -0.8451
vn 0.0000 -0.6390 0.7692
vn 0.0000 -0.6390 -0.7692
vn 0.2399 0.0000 -0.9708
vn -0.2399 0.0000 0.9708
vn 0.0000 1.0000 0.0000
vn 0.2399 0.0000 0.9708
vn -0.2399 0.0000 -0.9708
usemtl Material.003
s 1
f 1/1/1 2/2/1 3/3/1
f 2/2/2 4/4/2 3/3/2
f 5/5/3 6/6/3 7/7/3
f 6/6/4 8/8/4 7/7/4
f 5/5/5 8/9/5 1/10/5
f 9/11/6 6/6/6 10/12/6
f 2/13/7 10/12/7 11/14/7
f 4/4/5 1/10/5 3/15/5
f 11/14/3 5/5/3 4/4/3
f 12/16/1 1/1/1 8/17/1
f 1/1/1 9/18/1 2/2/1
f 2/2/2 11/14/2 4/4/2
f 5/5/3 10/12/3 6/6/3
f 6/6/4 12/19/4 8/8/4
f 5/5/5 7/7/5 8/9/5
f 9/11/6 12/20/6 6/6/6
f 2/13/7 9/11/7 10/12/7
f 4/4/5 5/5/5 1/10/5
f 11/14/3 10/12/3 5/5/3
f 12/16/1 9/18/1 1/1/1
f 13/21/3 14/22/3 15/23/3
f 14/22/8 16/24/8 15/23/8
f 17/25/1 18/26/1 19/27/1
f 18/28/9 20/29/9 19/30/9
f 21/31/10 22/32/10 23/33/10
f 24/34/11 18/28/11 25/35/11
f 26/36/12 27/37/12 28/38/12
f 29/39/13 30/40/13 31/41/13
f 28/42/1 32/43/1 33/44/1
f 34/45/3 35/46/3 36/47/3
f 37/48/3 38/49/3 39/50/3
f 40/51/3 41/52/3 38/49/3
f 42/53/3 43/54/3 41/52/3
f 44/55/3 45/56/3 43/54/3
f 46/57/3 45/56/3 47/58/3
f 48/59/1 49/60/1 50/61/1
f 51/62/1 52/63/1 49/60/1
f 53/64/1 54/65/1 52/63/1
f 55/66/1 56/67/1 54/65/1
f 57/68/1 56/67/1 58/69/1
f 59/70/14 60/71/14 61/72/14
f 62/73/2 63/74/2 59/70/2
f 64/75/2 65/76/2 62/73/2
f 66/77/2 67/78/2 64/75/2
f 68/79/2 69/80/2 66/77/2
f 70/81/1 61/82/1 71/83/1
f 70/81/1 62/84/1 59/85/1
f 72/86/1 64/87/1 62/84/1
f 73/88/1 66/89/1 64/87/1
f 74/90/1 66/89/1 75/91/1
f 76/92/15 77/93/15 78/94/15
f 79/95/4 80/96/4 76/92/4
f 81/97/4 82/98/4 79/95/4
f 83/99/4 84/100/4 81/97/4
f 85/101/4 86/102/4 83/99/4
f 87/103/3 78/94/3 88/104/3
f 87/103/3 79/95/3 76/92/3
f 89/105/3 81/97/3 79/95/3
f 90/106/3 83/99/3 81/97/3
f 91/107/3 83/99/3 92/108/3
f 93/109/1 94/110/1 56/67/1
f 56/67/1 95/111/1 54/65/1
f 54/65/1 96/112/1 52/63/1
f 52/63/1 97/113/1 49/60/1
f 49/60/1 98/114/1 50/61/1
f 99/115/3 47/58/3 100/116/3
f 100/116/3 44/55/3 101/117/3
f 101/117/3 42/53/3 102/118/3
f 102/118/3 40/51/3 103/119/3
f 104/120/3 40/51/3 37/48/3
f 24/121/3 36/47/3 105/122/3
f 106/123/16 107/124/16 27/37/16
f 108/125/17 109/126/17 30/40/17
f 32/43/1 107/127/1 110/128/1
f 93/109/1 111/129/1 112/130/1
f 113/131/3 46/57/3 99/115/3
f 114/132/3 115/133/3 46/57/3
f 116/134/1 93/109/1 57/68/1
f 117/135/18 118/136/18 68/79/18
f 74/90/1 117/137/1 68/138/1
f 119/139/19 120/140/19 85/101/19
f 91/107/3 119/139/3 85/101/3
f 115/133/3 121/141/3 122/142/3
f 123/143/1 57/68/1 124/144/1
f 115/133/3 125/145/3 45/56/3
f 45/56/3 126/146/3 43/54/3
f 43/54/3 127/147/3 41/52/3
f 41/52/3 128/148/3 38/49/3
f 38/49/3 129/149/3 39/50/3
f 124/144/1 58/69/1 130/150/1
f 130/150/1 55/66/1 131/151/1
f 131/151/1 53/64/1 132/152/1
f 132/152/1 51/62/1 133/153/1
f 134/154/1 51/62/1 48/59/1
f 135/155/1 33/44/1 136/156/1
f 137/157/20 31/41/20 138/158/20
f 139/159/21 28/38/21 135/160/21
f 35/46/3 26/161/3 140/162/3
f 141/163/1 48/59/1 142/164/1
f 39/50/3 143/165/3 144/166/3
f 145/167/3 37/48/3 146/168/3
f 50/61/1 147/169/1 148/170/1
f 88/104/3 149/171/3 150/172/3
f 78/94/22 151/173/22 149/171/22
f 71/83/1 152/174/1 153/175/1
f 61/72/23 154/176/23 152/177/23
f 142/164/1 50/61/1 148/170/1
f 146/168/3 39/50/3 144/166/3
f 98/114/1 153/175/1 147/169/1
f 154/178/3 104/120/3 145/167/3
f 112/130/1 155/179/1 74/90/1
f 156/180/3 99/115/3 118/181/3
f 157/182/3 105/122/3 20/183/3
f 60/184/3 103/119/3 104/120/3
f 65/185/3 103/119/3 63/186/3
f 65/185/3 101/117/3 102/118/3
f 67/187/3 100/116/3 101/117/3
f 69/188/3 99/115/3 100/116/3
f 112/130/1 75/91/1 94/110/1
f 94/110/1 73/88/1 95/111/1
f 95/111/1 72/86/1 96/112/1
f 96/112/1 70/81/1 97/113/1
f 97/113/1 71/83/1 98/114/1
f 34/189/24 25/35/24 107/124/24
f 158/190/25 23/191/25 109/126/25
f 110/128/1 25/192/1 17/25/1
f 129/149/3 150/172/3 143/165/3
f 151/193/1 134/154/1 141/163/1
f 14/194/26 135/160/26 159/195/26
f 160/196/27 138/158/27 161/197/27
f 159/198/1 136/156/1 16/199/1
f 77/200/1 133/153/1 134/154/1
f 82/201/1 133/153/1 80/202/1
f 84/203/1 132/152/1 82/201/1
f 86/204/1 131/151/1 84/203/1
f 120/205/1 130/150/1 86/204/1
f 162/206/1 124/144/1 120/205/1
f 122/142/3 163/207/3 91/107/3
f 122/142/3 92/108/3 125/145/3
f 125/145/3 90/106/3 126/146/3
f 126/146/3 89/105/3 127/147/3
f 127/147/3 87/103/3 128/148/3
f 128/148/3 88/104/3 129/149/3
f 140/162/3 139/208/3 13/21/3
f 121/141/3 13/21/3 163/207/3
f 16/199/1 123/143/1 162/206/1
f 111/129/1 17/25/1 155/179/1
f 20/183/3 113/131/3 156/180/3
f 164/209/3 140/162/3 121/141/3
f 136/156/1 116/134/1 123/143/1
f 165/210/1 110/128/1 111/129/1
f 105/122/3 114/132/3 113/131/3
f 36/47/3 164/209/3 114/132/3
f 33/44/1 165/210/1 116/134/1
f 19/30/28 156/211/28 117/135/28
f 155/179/1 19/27/1 117/137/1
f 15/23/29 162/212/29 119/139/29
f 163/207/3 15/23/3 119/139/3
f 160/213/1 141/163/1 137/214/1
f 143/165/3 138/215/3 31/216/3
f 22/217/3 145/167/3 23/218/3
f 147/169/1 21/219/1 158/220/1
f 109/221/3 144/166/3 30/222/3
f 29/223/1 148/170/1 108/224/1
f 152/177/30 22/225/30 166/226/30
f 153/175/1 166/227/1 21/219/1
f 149/171/31 160/196/31 161/228/31
f 150/172/3 161/228/3 138/215/3
f 148/170/1 158/220/1 108/224/1
f 23/218/3 146/168/3 109/221/3
f 144/166/3 31/216/3 30/222/3
f 137/214/1 142/164/1 29/223/1
f 13/21/3 139/208/3 14/22/3
f 14/22/8 159/195/8 16/24/8
f 17/25/1 25/192/1 18/26/1
f 18/28/9 157/229/9 20/29/9
f 21/31/10 166/226/10 22/32/10
f 24/34/11 157/230/11 18/28/11
f 26/36/12 106/123/12 27/37/12
f 29/39/13 108/125/13 30/40/13
f 28/42/1 27/231/1 32/43/1
f 34/45/3 106/232/3 35/46/3
f 37/48/3 40/51/3 38/49/3
f 40/51/3 42/53/3 41/52/3
f 42/53/3 44/55/3 43/54/3
f 44/55/3 47/58/3 45/56/3
f 46/57/3 115/133/3 45/56/3
f 48/59/1 51/62/1 49/60/1
f 51/62/1 53/64/1 52/63/1
f 53/64/1 55/66/1 54/65/1
f 55/66/1 58/69/1 56/67/1
f 57/68/1 93/109/1 56/67/1
f 59/70/14 63/74/14 60/71/14
f 62/73/2 65/76/2 63/74/2
f 64/75/2 67/78/2 65/76/2
f 66/77/2 69/80/2 67/78/2
f 68/79/2 118/136/2 69/80/2
f 70/81/1 59/85/1 61/82/1
f 70/81/1 72/86/1 62/84/1
f 72/86/1 73/88/1 64/87/1
f 73/88/1 75/91/1 66/89/1
f 74/90/1 68/138/1 66/89/1
f 76/92/15 80/96/15 77/93/15
f 79/95/4 82/98/4 80/96/4
f 81/97/4 84/100/4 82/98/4
f 83/99/4 86/102/4 84/100/4
f 85/101/4 120/140/4 86/102/4
f 87/103/3 76/92/3 78/94/3
f 87/103/3 89/105/3 79/95/3
f 89/105/3 90/106/3 81/97/3
f 90/106/3 92/108/3 83/99/3
f 91/107/3 85/101/3 83/99/3
f 93/109/1 112/130/1 94/110/1
f 56/67/1 94/110/1 95/111/1
f 54/65/1 95/111/1 96/112/1
f 52/63/1 96/112/1 97/113/1
f 49/60/1 97/113/1 98/114/1
f 99/115/3 46/57/3 47/58/3
f 100/116/3 47/58/3 44/55/3
f 101/117/3 44/55/3 42/53/3
f 102/118/3 42/53/3 40/51/3
f 104/120/3 103/119/3 40/51/3
f 24/121/3 34/45/3 36/47/3
f 106/123/16 34/189/16 107/124/16
f 108/125/17 158/190/17 109/126/17
f 32/43/1 27/231/1 107/127/1
f 93/109/1 165/210/1 111/129/1
f 113/131/3 114/132/3 46/57/3
f 114/132/3 164/209/3 115/133/3
f 116/134/1 165/210/1 93/109/1
f 117/135/18 156/211/18 118/136/18
f 74/90/1 155/179/1 117/137/1
f 119/139/19 162/212/19 120/140/19
f 91/107/3 163/207/3 119/139/3
f 115/133/3 164/209/3 121/141/3
f 123/143/1 116/134/1 57/68/1
f 115/133/3 122/142/3 125/145/3
f 45/56/3 125/145/3 126/146/3
f 43/54/3 126/146/3 127/147/3
f 41/52/3 127/147/3 128/148/3
f 38/49/3 128/148/3 129/149/3
f 124/144/1 57/68/1 58/69/1
f 130/150/1 58/69/1 55/66/1
f 131/151/1 55/66/1 53/64/1
f 132/152/1 53/64/1 51/62/1
f 134/154/1 133/153/1 51/62/1
f 135/155/1 28/42/1 33/44/1
f 137/157/20 29/39/20 31/233/20
f 139/159/21 26/36/21 28/38/21
f 35/46/3 106/232/3 26/161/3
f 141/163/1 134/154/1 48/59/1
f 39/50/3 129/149/3 143/165/3
f 145/167/3 104/120/3 37/48/3
f 50/61/1 98/114/1 147/169/1
f 88/104/3 78/94/3 149/171/3
f 78/94/22 77/93/22 151/173/22
f 71/83/1 61/82/1 152/174/1
f 61/72/23 60/71/23 154/176/23
f 142/164/1 48/59/1 50/61/1
f 146/168/3 37/48/3 39/50/3
f 98/114/1 71/83/1 153/175/1
f 154/178/3 60/184/3 104/120/3
f 112/130/1 111/129/1 155/179/1
f 156/180/3 113/131/3 99/115/3
f 157/182/3 24/121/3 105/122/3
f 60/184/3 63/186/3 103/119/3
f 65/185/3 102/118/3 103/119/3
f 65/185/3 67/187/3 101/117/3
f 67/187/3 69/188/3 100/116/3
f 69/188/3 118/181/3 99/115/3
f 112/130/1 74/90/1 75/91/1
f 94/110/1 75/91/1 73/88/1
f 95/111/1 73/88/1 72/86/1
f 96/112/1 72/86/1 70/81/1
f 97/113/1 70/81/1 71/83/1
f 34/189/24 24/34/24 25/35/24
f 158/190/25 21/31/25 23/33/25
f 110/128/1 107/127/1 25/192/1
f 129/149/3 88/104/3 150/172/3
f 151/193/1 77/200/1 134/154/1
f 14/194/26 139/159/26 135/160/26
f 160/196/27 137/157/27 138/158/27
f 159/198/1 135/155/1 136/156/1
f 77/200/1 80/202/1 133/153/1
f 82/201/1 132/152/1 133/153/1
f 84/203/1 131/151/1 132/152/1
f 86/204/1 130/150/1 131/151/1
f 120/205/1 124/144/1 130/150/1
f 162/206/1 123/143/1 124/144/1
f 122/142/3 121/141/3 163/207/3
f 122/142/3 91/107/3 92/108/3
f 125/145/3 92/108/3 90/106/3
f 126/146/3 90/106/3 89/105/3
f 127/147/3 89/105/3 87/103/3
f 128/148/3 87/103/3 88/104/3
f 140/162/3 26/161/3 139/208/3
f 121/141/3 140/162/3 13/21/3
f 16/199/1 136/156/1 123/143/1
f 111/129/1 110/128/1 17/25/1
f 20/183/3 105/122/3 113/131/3
f 164/209/3 35/46/3 140/162/3
f 136/156/1 33/44/1 116/134/1
f 165/210/1 32/43/1 110/128/1
f 105/122/3 36/47/3 114/132/3
f 36/47/3 35/46/3 164/209/3
f 33/44/1 32/43/1 165/210/1
f 19/30/28 20/29/28 156/211/28
f 155/179/1 17/25/1 19/27/1
f 15/23/29 16/24/29 162/212/29
f 163/207/3 13/21/3 15/23/3
f 160/213/1 151/193/1 141/163/1
f 143/165/3 150/172/3 138/215/3
f 22/217/3 154/178/3 145/167/3
f 147/169/1 153/175/1 21/219/1
f 109/221/3 146/168/3 144/166/3
f 29/223/1 142/164/1 148/170/1
f 152/177/30 154/176/30 22/225/30
f 153/175/1 152/174/1 166/227/1
f 149/171/31 151/173/31 160/196/31
f 150/172/3 149/171/3 161/228/3
f 148/170/1 147/169/1 158/220/1
f 23/218/3 145/167/3 146/168/3
f 144/166/3 143/165/3 31/216/3
f 137/214/1 141/163/1 142/164/1
f 167/234/3 168/235/3 169/236/3
f 170/237/32 171/238/32 172/239/32
f 173/240/1 174/241/1 171/238/1
f 175/242/33 169/243/33 176/244/33
f 171/238/5 177/245/5 172/246/5
f 178/247/34 175/248/34 179/249/34
f 170/250/34 180/251/34 173/240/34
f 179/249/34 181/252/34 170/250/34
f 182/253/5 169/254/5 168/255/5
f 172/246/5 176/256/5 182/253/5
f 180/251/35 177/257/35 174/241/35
f 181/258/2 176/244/2 177/257/2
f 178/259/36 182/260/36 168/235/36
f 179/261/4 172/239/4 182/260/4
f 167/234/3 178/259/3 168/235/3
f 170/237/32 173/240/32 171/238/32
f 173/240/1 180/251/1 174/241/1
f 175/242/33 167/262/33 169/243/33
f 171/238/5 174/241/5 177/245/5
f 178/247/34 167/263/34 175/248/34
f 170/250/34 181/252/34 180/251/34
f 179/249/34 175/248/34 181/252/34
f 182/253/5 176/256/5 169/254/5
f 172/246/5 177/245/5 176/256/5
f 180/251/35 181/258/35 177/257/35
f 181/258/2 175/242/2 176/244/2
f 178/259/36 179/261/36 182/260/36
f 179/261/4 170/237/4 172/239/4
